<svg viewBox="0 0 512 512"
    xmlns="http://www.w3.org/2000/svg">
    <path d="M256 32C132.3 32 32 132.3 32 256s100.3 224 224 224 224-100.3 224-224S379.7 32 256 32zm0 64c35.3 0 64 28.7 64 64 0 23.7-12.9 44.4-32 55.4v104.5c19.1 11.1 32 31.7 32 55.4 0 35.3-28.7 64-64 64s-64-28.7-64-64c0-23.7 12.9-44.4 32-55.4V215.4c-19.1-11.1-32-31.7-32-55.4 0-35.3 28.7-64 64-64zm-96 128c-17.7 0-32 14.3-32 32s14.3 32 32 32 32-14.3 32-32-14.3-32-32-32zm192 0c-17.7 0-32 14.3-32 32s14.3 32 32 32 32-14.3 32-32-14.3-32-32-32z"/>
</svg>
